# xmcd CD database file
#
# Track frame offsets:
#	150
#	13708
#	30766
#	45299
#	64156
#	79719
#	92734
#	103046
#	116915
#	131474
#	144806
#	160823
#	175650
#	187867
#	203005
#
# Disc length: 2957 seconds
#
# Revision: 0
# Processed by: cddbd v1.5PL3 Copyright (c) Steve Scherf et al.
# Submitted via: CDex 1.51
#
DISCID=af0b8b0f
DTITLE=Alfredo Rey - ALTA INFEDELTA'
DYEAR=2004
DGENRE=Jazz
TTITLE0=Balla balla ballerino
TTITLE1=Non m'annoio
TTITLE2=Fotoromanza
TTITLE3=Albachiara
TTITLE4=Il tempo di morire
TTITLE5=E penso a te
TTITLE6=Bacco, tabacco e Venere
TTITLE7=Heidi
TTITLE8=Rose rosse
TTITLE9=Xdono
TTITLE10=Serenata ad Afrodite
TTITLE11=Non dimenticar le mie parole
TTITLE12=Transylvania 6 - 5000
TTITLE13=Ore d'amore
TTITLE14=Tuxedo junction
EXTD=YEAR: 2004
EXTT0=
EXTT1=
EXTT2=
EXTT3=
EXTT4=
EXTT5=
EXTT6=
EXTT7=
EXTT8=
EXTT9=
EXTT10=
EXTT11=
EXTT12=
EXTT13=
EXTT14=
PLAYORDER=
